<svg width="120" height="120" viewBox="0 0 120 120" fill="none" xmlns="http://www.w3.org/2000/svg">
<g clip-path="url(#clip0_44:4)">
<rect width="120" height="120" rx="25" fill="#151726"/>
<path d="M49.536 61.744C55.488 60.496 59.904 58.096 62.784 54.544C65.76 50.992 67.248 47.584 67.248 44.32C67.248 40.96 66.336 38.704 64.512 37.552C62.784 36.304 60.864 35.68 58.752 35.68C54.24 35.68 50.256 38.224 46.8 43.312C43.44 48.304 41.76 54.304 41.76 61.312C41.76 68.224 43.392 73.408 46.656 76.864C50.016 80.224 54.144 81.904 59.04 81.904C66.24 81.904 73.152 79.408 79.776 74.416C86.4 69.424 91.776 62.896 95.904 54.832C98.016 56.848 99.936 59.344 101.664 62.32C98.496 69.52 92.88 76.576 84.816 83.488C80.784 86.848 75.984 89.584 70.416 91.696C64.944 93.808 59.28 94.864 53.424 94.864C43.824 94.864 36.24 91.936 30.672 86.08C24.72 79.744 21.744 71.632 21.744 61.744C21.744 51.856 25.44 43.216 32.832 35.824C40.32 28.432 49.248 24.736 59.616 24.736C67.008 24.736 73.008 26.368 77.616 29.632C82.224 32.8 84.576 37.12 84.672 42.592C84.672 49.984 81.696 55.984 75.744 60.592C69.888 65.2 61.824 68.416 51.552 70.24L49.536 61.744Z" fill="#1DFFF1"/>
</g>
<defs>
<clipPath id="clip0_44:4">
<rect width="120" height="120" fill="white"/>
</clipPath>
</defs>
</svg>
