<svg width="130" height="50" viewBox="0 0 130 50" fill="none" xmlns="http://www.w3.org/2000/svg">
<path d="M8.424 24.436C7.032 25.42 6.336 26.884 6.336 28.828C6.336 30.052 6.768 31.204 7.632 32.284C8.52 33.364 10.008 33.904 12.096 33.904C14.184 33.904 16.164 33.196 18.036 31.78C19.908 30.364 21.324 28.816 22.284 27.136L23.508 29.332C20.412 34.588 16.104 37.216 10.584 37.216C7.848 37.216 5.532 36.484 3.636 35.02C1.74 33.532 0.792 31.792 0.792 29.8C0.792 26.32 2.34 23.8 5.436 22.24C4.404 20.968 3.888 19.48 3.888 17.776C3.888 15.544 4.848 13.624 6.768 12.016C8.712 10.408 10.956 9.604 13.5 9.604C16.044 9.604 18 10.252 19.368 11.548C20.76 12.844 21.456 14.548 21.456 16.66H18.036C18.06 15.364 17.712 14.392 16.992 13.744C16.296 13.072 15.312 12.736 14.04 12.736C12.792 12.736 11.664 13.192 10.656 14.104C9.528 15.088 8.964 16.24 8.964 17.56C8.964 18.88 9.324 20.02 10.044 20.98C12.444 20.692 14.268 20.848 15.516 21.448C16.284 21.808 16.668 22.384 16.668 23.176C16.668 23.944 16.224 24.484 15.336 24.796C14.472 25.108 13.428 25.264 12.204 25.264C10.98 25.264 9.72 24.988 8.424 24.436ZM32.272 11.044C32.44 10.636 32.812 10.3 33.388 10.036C33.988 9.748 34.696 9.604 35.512 9.604C36.352 9.604 36.976 9.724 37.384 9.964C37.144 11.836 36.76 14.776 36.232 18.784C35.128 27.16 34.576 31.78 34.576 32.644C34.576 33.484 34.936 33.904 35.656 33.904C36.28 33.904 36.928 33.52 37.6 32.752C38.272 31.96 38.884 30.676 39.436 28.9C40.108 29.548 40.576 30.256 40.84 31.024C39.976 33.88 38.62 35.728 36.772 36.568C35.932 36.976 35.14 37.18 34.396 37.18C32.26 37.18 30.832 36.412 30.112 34.876C28.864 36.436 27.268 37.216 25.324 37.216C23.38 37.216 21.736 36.556 20.392 35.236C19.072 33.916 18.412 32.176 18.412 30.016C18.412 26.872 19.336 24.364 21.184 22.492C23.032 20.62 25.372 19.684 28.204 19.684C28.276 19.684 28.348 19.684 28.42 19.684C29.404 19.684 30.328 19.828 31.192 20.116L32.272 11.044ZM28.744 22.492C27.208 22.492 25.984 23.08 25.072 24.256C24.184 25.408 23.656 27.136 23.488 29.44C23.464 29.656 23.452 29.86 23.452 30.052C23.452 31.228 23.728 32.164 24.28 32.86C24.856 33.556 25.588 33.904 26.476 33.904C27.988 33.904 29.128 32.836 29.896 30.7L30.832 22.96C30.04 22.648 29.344 22.492 28.744 22.492ZM40.9787 10.504C41.5307 9.928 42.2027 9.64 42.9947 9.64C43.7867 9.64 44.4587 9.928 45.0107 10.504C45.5867 11.056 45.8747 11.728 45.8747 12.52C45.8747 13.312 45.5867 13.984 45.0107 14.536C44.4587 15.088 43.7867 15.364 42.9947 15.364C42.2027 15.364 41.5307 15.088 40.9787 14.536C40.4267 13.984 40.1507 13.312 40.1507 12.52C40.1507 11.728 40.4267 11.056 40.9787 10.504ZM39.5027 21.052C39.7427 20.62 40.1987 20.296 40.8707 20.08C41.5427 19.84 42.2027 19.72 42.8507 19.72C43.5227 19.72 44.1107 19.804 44.6147 19.972C43.6787 27.196 43.2107 30.844 43.2107 30.916C43.0907 31.396 43.0307 31.804 43.0307 32.14C43.0307 32.452 43.0547 32.728 43.1027 32.968C43.1987 33.592 43.6307 33.904 44.3987 33.904C45.1907 33.904 45.9107 33.4 46.5587 32.392C47.2307 31.36 47.7347 30.196 48.0707 28.9C48.2387 28.996 48.5027 29.284 48.8627 29.764C49.2227 30.244 49.4387 30.604 49.5107 30.844C49.0307 32.764 48.2147 34.312 47.0627 35.488C45.9107 36.664 44.5307 37.252 42.9227 37.252C41.3147 37.252 40.1147 36.856 39.3227 36.064C38.5547 35.272 38.1707 34.252 38.1707 33.004C38.1707 32.74 38.1827 32.464 38.2067 32.176L39.5027 21.052ZM54.7107 11.944C54.7107 12.088 54.3867 14.668 53.7387 19.684H59.0307V22.456H53.3787L53.2707 23.356C56.0787 25.708 57.4827 28.276 57.4827 31.06C57.4827 33.244 56.9187 34.816 55.7907 35.776C54.6867 36.736 53.3547 37.216 51.7947 37.216C50.2347 37.216 49.0947 36.808 48.3747 35.992C47.6547 35.152 47.2947 34.144 47.2947 32.968C47.2947 32.704 47.3187 32.416 47.3667 32.104L48.4827 22.528L48.3387 22.456H45.4227C45.3987 22.216 45.3867 21.832 45.3867 21.304C45.3867 20.752 45.4947 20.212 45.7107 19.684H48.8067L49.9587 9.892C50.4627 9.7 51.1347 9.604 51.9747 9.604C53.7987 9.604 54.7107 10.384 54.7107 11.944ZM55.0707 31.024C55.0707 29.368 54.3507 27.736 52.9107 26.128C52.4787 29.704 52.2627 31.768 52.2627 32.32C52.2627 33.4 52.6107 33.94 53.3067 33.94C53.8107 33.94 54.2307 33.712 54.5667 33.256C54.9027 32.776 55.0707 32.032 55.0707 31.024ZM65.1417 47.692C63.7737 47.692 62.5977 47.272 61.6137 46.432C60.6297 45.616 60.1377 44.416 60.1377 42.832C60.1377 40.888 61.1217 38.992 63.0897 37.144C61.6977 37.024 60.5817 36.568 59.7417 35.776C58.9017 34.984 58.4817 33.868 58.4817 32.428C58.4817 31.756 58.5657 30.748 58.7337 29.404C58.9017 28.06 59.0817 26.608 59.2737 25.048C59.4657 23.488 59.6697 21.832 59.8857 20.08C60.6297 19.816 61.3137 19.684 61.9377 19.684C62.5617 19.684 63.0297 19.708 63.3417 19.756C63.6537 19.804 63.9537 19.984 64.2417 20.296C64.5297 20.608 64.6737 21.052 64.6737 21.628L63.4857 30.808C63.4377 31.192 63.4137 31.456 63.4137 31.6C63.4137 33.016 64.0617 33.724 65.3577 33.724C66.5337 33.724 67.4937 33.172 68.2377 32.068C68.3097 31.516 68.4897 29.932 68.7777 27.316C69.0657 24.676 69.3057 22.624 69.4977 21.16C69.7137 20.704 70.1577 20.344 70.8297 20.08C71.5257 19.816 72.0897 19.684 72.5217 19.684C73.2897 19.684 73.9857 19.78 74.6097 19.972L72.9177 33.256C75.7257 33.76 77.4057 35.692 77.9577 39.052C77.8617 39.508 77.4057 40.228 76.5897 41.212C76.1097 38.212 74.7897 36.388 72.6297 35.74L72.0537 40.24C71.7897 42.4 71.1057 44.176 70.0017 45.568C68.8977 46.984 67.2777 47.692 65.1417 47.692ZM62.9457 42.148C62.9457 42.94 63.1377 43.528 63.5217 43.912C63.9057 44.296 64.4097 44.488 65.0337 44.488C65.6817 44.488 66.1737 44.224 66.5097 43.696C66.8457 43.168 67.1097 42.112 67.3017 40.528L67.7697 36.568C64.6257 38.2 63.0177 40.06 62.9457 42.148ZM102.985 9.856C103.489 9.664 104.197 9.568 105.109 9.568C106.021 9.568 106.837 9.628 107.557 9.748C106.813 15.268 106.225 20.272 105.793 24.76C105.385 29.224 105.157 31.576 105.109 31.816C105.085 32.056 105.073 32.272 105.073 32.464C105.097 33.088 105.397 33.4 105.973 33.4C107.413 33.4 109.417 31.744 111.985 28.432C112.441 29.704 112.705 30.556 112.777 30.988C111.625 32.812 110.233 34.312 108.601 35.488C106.993 36.64 105.469 37.216 104.029 37.216C102.589 37.216 101.593 36.844 101.041 36.1C100.489 35.356 100.213 34.528 100.213 33.616C100.213 33.4 100.237 32.98 100.285 32.356C100.357 31.732 100.837 27.844 101.725 20.692L95.8206 34.336H92.7606L90.9966 20.908L88.4766 32.068C88.0686 33.844 87.3966 35.152 86.4606 35.992C85.5486 36.832 84.5406 37.252 83.4366 37.252C82.3326 37.252 81.4326 36.928 80.7366 36.28C79.9926 35.584 79.6206 34.6 79.6206 33.328C79.6206 30.784 81.5886 28.612 85.5246 26.812C87.6606 16.564 88.8126 10.888 88.9806 9.784C89.5566 9.64 90.3246 9.568 91.2846 9.568C92.2686 9.568 92.9406 9.592 93.3006 9.64H93.5526L95.7846 26.38L102.985 10.036V9.856ZM82.1766 32.716C82.1766 33.484 82.4766 33.868 83.0766 33.868C83.4846 33.868 83.8206 33.544 84.0846 32.896C84.4206 32.104 84.6966 31.06 84.9126 29.764C83.0886 30.796 82.1766 31.78 82.1766 32.716Z" fill="#EFEFEF"/>
<path d="M116.253 28.936C117.741 28.624 118.845 28.024 119.565 27.136C120.309 26.248 120.681 25.396 120.681 24.58C120.681 23.74 120.453 23.176 119.997 22.888C119.565 22.576 119.085 22.42 118.557 22.42C117.429 22.42 116.433 23.056 115.569 24.328C114.729 25.576 114.309 27.076 114.309 28.828C114.309 30.556 114.717 31.852 115.533 32.716C116.373 33.556 117.405 33.976 118.629 33.976C120.429 33.976 122.157 33.352 123.813 32.104C125.469 30.856 126.813 29.224 127.845 27.208C128.373 27.712 128.853 28.336 129.285 29.08C128.493 30.88 127.089 32.644 125.073 34.372C124.065 35.212 122.865 35.896 121.473 36.424C120.105 36.952 118.689 37.216 117.225 37.216C114.825 37.216 112.929 36.484 111.537 35.02C110.049 33.436 109.305 31.408 109.305 28.936C109.305 26.464 110.229 24.304 112.077 22.456C113.949 20.608 116.181 19.684 118.773 19.684C120.621 19.684 122.121 20.092 123.273 20.908C124.425 21.7 125.013 22.78 125.037 24.148C125.037 25.996 124.293 27.496 122.805 28.648C121.341 29.8 119.325 30.604 116.757 31.06L116.253 28.936Z" fill="#1DFFF1"/>
<circle cx="43.5" cy="12.5" r="3.5" fill="#1DFFF1"/>
</svg>
